<svg width="470" height="358" viewBox="0 0 470 358" fill="none" xmlns="http://www.w3.org/2000/svg">
<g filter="url(#filter0_bd_5_2)">
<path d="M60 60C60 48.9543 68.9543 40 80 40H390C401.046 40 410 48.9543 410 60V222.156C410 232.323 402.372 240.872 392.271 242.026L82.2709 277.455C70.4029 278.811 60 269.529 60 257.584V60Z" fill="url(#paint0_linear_5_2)" fill-opacity="0.6" shape-rendering="crispEdges"/>
<path d="M80 41H390C400.493 41 409 49.5066 409 60V222.156C409 231.814 401.754 239.936 392.157 241.033L82.1574 276.461C70.8827 277.75 61 268.932 61 257.584V60C61 49.5066 69.5066 41 80 41Z" stroke="url(#paint1_linear_5_2)" stroke-opacity="0.2" stroke-width="2" shape-rendering="crispEdges"/>
</g>
<defs>
<filter id="filter0_bd_5_2" x="-40" y="-60" width="550" height="437.587" filterUnits="userSpaceOnUse" color-interpolation-filters="sRGB">
<feFlood flood-opacity="0" result="BackgroundImageFix"/>
<feGaussianBlur in="BackgroundImageFix" stdDeviation="50"/>
<feComposite in2="SourceAlpha" operator="in" result="effect1_backgroundBlur_5_2"/>
<feColorMatrix in="SourceAlpha" type="matrix" values="0 0 0 0 0 0 0 0 0 0 0 0 0 0 0 0 0 0 127 0" result="hardAlpha"/>
<feOffset dy="20"/>
<feGaussianBlur stdDeviation="30"/>
<feComposite in2="hardAlpha" operator="out"/>
<feColorMatrix type="matrix" values="0 0 0 0 0.0640972 0 0 0 0 0.0794837 0 0 0 0 0.108333 0 0 0 0.6 0"/>
<feBlend mode="normal" in2="effect1_backgroundBlur_5_2" result="effect2_dropShadow_5_2"/>
<feBlend mode="normal" in="SourceGraphic" in2="effect2_dropShadow_5_2" result="shape"/>
</filter>
<linearGradient id="paint0_linear_5_2" x1="186.212" y1="103.734" x2="204.149" y2="251.851" gradientUnits="userSpaceOnUse">
<stop stop-color="#353F54"/>
<stop offset="1" stop-color="#222834"/>
</linearGradient>
<linearGradient id="paint1_linear_5_2" x1="99.2424" y1="48.9627" x2="231.249" y2="237.494" gradientUnits="userSpaceOnUse">
<stop stop-color="white"/>
<stop offset="0.844522"/>
<stop offset="1"/>
</linearGradient>
</defs>
</svg>
